PathFileType	4	(X/Y/Z)	E:\3-PhD\Data\MocapData\ElaboratedData\015\pre\dynamicElaborations\RunL1\RunL1.trc
DataRate	CameraRate	NumFrames	NumMarkers	Units	OrigDataRate	OrigDataStartFrame	OrigNumFrames
200	200	4	61	mm	200	2.560000e+02	124
Frame#	Time	FHD			LBHD			RBHD			C7			T10			CLAV			LSHO			LUUPA			LMUPA			LDUPA			LLEP			LMEP			LRAD			LUL			LRFIN			RSHO			RUPA1			RMUPA			RDUPA			RLEP			RMEP			RRAD			RUL			RUFIN			LASI			RASI			USACR			LSACR			RSACR			LTHI1			LTHI2			LTHI3			LTHI4			LLFC			LMFC			LTIB1			LTIB2			LTIB3			LTIB4			LLMAL			LMMAL			LHEE			LMT1			LMT5			LMT2			RTHI			RTHI2			RTHI3			RTHI4			RLFC			RMFC			RTIB1			RTIB2			RTIB3			RTIB4			RLMAL			RMMAL			RHEE			RMT1			RMT2			RMT5		
		X1	Y1	Z1	X2	Y2	Z2	X3	Y3	Z3	X4	Y4	Z4	X5	Y5	Z5	X6	Y6	Z6	X7	Y7	Z7	X8	Y8	Z8	X9	Y9	Z9	X10	Y10	Z10	X11	Y11	Z11	X12	Y12	Z12	X13	Y13	Z13	X14	Y14	Z14	X15	Y15	Z15	X16	Y16	Z16	X17	Y17	Z17	X18	Y18	Z18	X19	Y19	Z19	X20	Y20	Z20	X21	Y21	Z21	X22	Y22	Z22	X23	Y23	Z23	X24	Y24	Z24	X25	Y25	Z25	X26	Y26	Z26	X27	Y27	Z27	X28	Y28	Z28	X29	Y29	Z29	X30	Y30	Z30	X31	Y31	Z31	X32	Y32	Z32	X33	Y33	Z33	X34	Y34	Z34	X35	Y35	Z35	X36	Y36	Z36	X37	Y37	Z37	X38	Y38	Z38	X39	Y39	Z39	X40	Y40	Z40	X41	Y41	Z41	X42	Y42	Z42	X43	Y43	Z43	X44	Y44	Z44	X45	Y45	Z45	X46	Y46	Z46	X47	Y47	Z47	X48	Y48	Z48	X49	Y49	Z49	X50	Y50	Z50	X51	Y51	Z51	X52	Y52	Z52	X53	Y53	Z53	X54	Y54	Z54	X55	Y55	Z55	X56	Y56	Z56	X57	Y57	Z57	X58	Y58	Z58	X59	Y59	Z59	X60	Y60	Z60	X61	Y61	Z61	
287	1.430000	-1476.502971	1465.499450	142.958147	-1591.632132	1545.532556	117.856975	-1603.955486	1562.876601	242.934322	-1776.533573	1464.952116	217.826561	-1907.261366	1150.161855	258.503829	-1669.359388	1333.493011	188.554537	-1761.075311	1421.940614	27.856044	-1814.537516	1241.346039	-54.670223	-1787.403799	1202.382264	-44.475778	-1831.881446	1178.154818	-76.413470	-1871.427262	1104.988680	-91.724311	-1889.078224	1078.849651	3.095245	-1661.088588	959.830729	-56.237726	-1646.017308	1013.570339	-9.376388	-1561.639637	1000.710462	-22.305229	-1687.698443	1423.876320	381.005098	-1750.677254	1301.134023	511.715122	-1737.234273	1254.953982	506.827527	-1774.545380	1248.854672	553.566043	-1815.677000	1157.656769	600.285270	-1884.622526	1155.497059	553.322581	-1717.677093	937.140200	488.220093	-1728.581069	905.599764	560.666165	-1657.607112	878.209946	487.881922	-1807.744564	969.190682	112.489785	-1764.051372	947.287338	359.320788	-1948.549718	1043.474896	272.654430	-1963.073299	1012.748769	246.944510	-1950.881275	1013.285695	302.805079	-1833.696360	675.854000	51.670574	-1775.781992	615.383864	41.162798	-1730.434300	630.769005	34.798684	-1771.367484	559.475487	66.914393	-1738.314214	481.518782	75.028960	-1719.297083	485.555657	198.508036	-1709.311598	319.054514	117.694246	-1775.043601	287.063845	69.581137	-1738.992164	276.777394	91.084147	-1761.559574	200.571836	125.962947	-1860.118837	100.515237	122.264359	-1840.552605	101.682549	206.044840	-1936.617898	56.077734	175.780130	-1722.066173	55.173041	168.399845	-1770.771621	29.236839	71.630920	-1726.381228	52.977166	121.162105	-1790.788506	754.814687	435.627629	-1754.995488	702.612281	429.695875	-1727.105379	705.177077	408.890900	-1779.530131	621.455432	437.449887	-1845.403965	460.391994	412.007328	-1829.524718	432.354686	283.905936	-2031.734818	391.515660	362.402777	-2110.895273	466.417644	386.842232	-2111.214262	419.429739	376.667625	-2157.224767	406.194617	344.383772	-2232.476751	451.074876	358.831759	-2210.447880	436.651669	277.895460	-2268.055874	530.714661	296.550862	-2294.955974	309.129118	287.812536	-2298.443821	314.968506	329.703239	-2333.895193	362.446210	373.067904	
288	1.435000	-1453.235619	1465.527097	144.281065	-1568.694824	1544.855578	118.600401	-1581.944347	1562.100406	243.735820	-1753.825062	1463.653504	216.335286	-1884.826223	1148.573839	257.201066	-1645.975015	1331.830024	189.209204	-1735.491345	1420.114533	26.824703	-1783.871371	1238.510444	-54.599352	-1755.995124	1200.201476	-43.940612	-1799.390251	1174.959687	-76.446313	-1836.432438	1100.453866	-92.343989	-1854.759661	1073.779943	2.414760	-1623.560937	960.748976	-52.895342	-1611.278242	1014.455634	-4.893757	-1526.490998	1004.223884	-16.059286	-1666.672376	1423.354145	381.334637	-1734.318540	1304.046365	513.050489	-1720.514480	1257.909722	510.294112	-1759.719503	1253.156292	555.531366	-1801.153516	1162.579161	603.482720	-1868.758571	1159.405036	555.338493	-1701.376964	940.897524	496.010161	-1714.770267	909.909474	567.812537	-1641.905118	881.422927	497.478324	-1786.377281	966.283085	110.672514	-1741.725109	945.260023	357.675163	-1926.727942	1041.520064	272.051937	-1941.104481	1010.777816	246.358784	-1929.045721	1011.468005	302.265974	-1816.799998	673.892336	50.725104	-1759.656331	612.874170	39.339249	-1714.304069	627.977676	32.334674	-1755.629185	556.787315	64.750374	-1722.720763	479.275449	72.635886	-1701.944500	483.065114	196.364826	-1699.764092	315.748778	115.952497	-1765.623121	285.681653	66.801675	-1730.509524	274.205790	89.301680	-1756.411631	199.148741	124.295368	-1859.416700	101.399480	121.385174	-1839.810952	103.029295	205.327493	-1936.647198	57.160025	175.594246	-1722.256406	55.522031	167.731029	-1771.108832	28.990350	71.213513	-1726.660272	53.060572	120.568662	-1763.232977	755.742607	435.752470	-1725.319688	704.786103	430.092826	-1697.876700	708.084875	408.888707	-1746.832568	622.904905	438.552006	-1805.479307	459.933800	412.501684	-1788.844105	432.921526	283.656984	-1990.823601	390.037485	361.769098	-2070.549544	464.104624	386.245465	-2070.563075	417.207257	375.900880	-2116.405828	403.703733	343.415101	-2191.825360	447.793597	357.771836	-2169.408794	434.024699	276.957794	-2229.217841	526.870749	295.689554	-2251.367057	304.776813	286.949329	-2254.846551	310.466969	328.704668	-2291.207673	357.263143	372.149011	
289	1.440000	-1430.064577	1465.740029	145.713322	-1545.856389	1544.358658	119.521800	-1559.928307	1561.537821	244.716312	-1731.078756	1462.578391	215.060099	-1862.302846	1147.389618	255.830112	-1622.632515	1330.526162	190.148516	-1709.588692	1418.763139	26.074108	-1753.389087	1236.440351	-54.414590	-1724.799030	1198.796403	-43.351716	-1767.145232	1172.561837	-76.325644	-1801.774508	1096.982163	-92.702435	-1820.534668	1069.932644	2.107685	-1586.297072	962.806654	-49.144729	-1576.862395	1016.526340	-0.138007	-1491.751675	1008.942524	-9.570635	-1645.724372	1423.315220	381.709774	-1718.342595	1307.847501	514.306245	-1704.046782	1261.887946	513.909601	-1745.267233	1258.428726	557.394211	-1786.588374	1168.292816	606.517683	-1852.827396	1164.091312	557.083942	-1684.729744	945.681197	503.079195	-1700.713272	914.991569	573.957583	-1625.851346	885.777135	506.129606	-1764.792060	963.762196	108.980677	-1719.372097	943.599401	356.163352	-1904.710285	1040.072321	271.419201	-1918.905355	1009.272912	245.754772	-1907.020164	1010.156635	301.724458	-1800.072411	672.125084	49.783972	-1743.786706	610.471664	37.618231	-1698.441119	625.289652	30.110053	-1740.345926	554.193743	62.633555	-1708.248789	476.582892	70.421062	-1685.714344	479.909984	194.290503	-1691.101822	312.096397	113.905168	-1756.995521	283.756632	63.802937	-1722.837822	271.239518	87.403873	-1751.861540	197.485309	122.577846	-1858.794191	102.341093	120.366914	-1839.024818	104.514072	204.459763	-1936.635985	58.466197	175.319369	-1722.412294	55.893030	166.986053	-1771.413102	28.652931	70.777572	-1726.908137	53.128506	119.894851	-1735.755603	757.193691	435.881870	-1695.688853	707.625249	430.373224	-1668.758639	711.669897	408.749967	-1714.013205	625.099116	439.521374	-1765.312296	460.263617	412.700610	-1748.184323	434.541886	283.146206	-1949.588650	388.589857	360.955578	-2030.146261	461.463381	385.583610	-2029.678481	414.670198	375.080962	-2075.325735	400.712626	342.360023	-2151.024530	443.670680	356.766277	-2128.361124	430.863042	276.085160	-2190.765880	522.104180	295.173220	-2207.136087	299.567472	285.988665	-2210.498560	304.979839	327.595323	-2247.802639	350.828292	371.353065	
290	1.445000	-1406.970274	1466.117540	147.273214	-1523.082720	1544.048191	120.622043	-1537.887595	1561.191715	245.874728	-1708.334237	1461.728690	214.005709	-1839.663019	1146.523590	254.392495	-1599.320453	1329.596557	191.354044	-1683.387838	1417.873268	25.614497	-1723.147281	1235.078372	-54.165737	-1693.882517	1198.094779	-42.761096	-1735.240073	1170.908385	-76.106228	-1767.554705	1094.499246	-92.830352	-1786.482633	1067.244795	2.132504	-1549.404566	965.999751	-44.972343	-1542.846134	1019.798465	4.842901	-1457.491952	1014.863840	-2.908333	-1624.887317	1423.753903	382.128597	-1702.658667	1312.426096	515.394583	-1687.783845	1266.775652	517.535850	-1731.064726	1264.530861	559.062176	-1771.948009	1174.716863	609.333765	-1836.815833	1169.472001	558.518675	-1667.726428	951.352726	509.457420	-1686.307316	920.766853	579.204896	-1609.435319	891.104141	513.820423	-1742.915153	961.658603	107.433422	-1696.953796	942.357970	354.809540	-1882.461317	1039.091534	270.721984	-1896.459034	1008.210276	245.083087	-1884.789069	1009.298971	301.131633	-1783.501347	670.538839	48.863101	-1728.232864	608.111345	36.043579	-1682.873831	622.541110	28.141116	-1725.605090	551.657867	60.657294	-1695.040530	473.341933	68.434440	-1670.852253	475.934938	192.331211	-1683.309466	308.086115	111.709281	-1749.341081	281.243228	60.957412	-1716.003036	267.864405	85.569632	-1747.852684	195.538547	121.041394	-1858.172800	103.416944	119.347762	-1838.142947	106.110545	203.564342	-1936.553539	60.091370	175.047706	-1722.497387	56.222672	166.243133	-1771.686923	28.283345	70.369868	-1727.107424	53.151642	119.220323	-1708.363013	759.150994	436.013432	-1666.141798	711.112796	430.530715	-1639.779778	715.914034	408.486682	-1681.129278	628.039424	440.347583	-1725.030129	461.375627	412.625662	-1707.640687	437.127047	282.418597	-1908.105870	387.198005	359.968350	-1989.759269	458.500045	384.861680	-1988.624099	411.835383	374.204213	-2034.036379	397.244193	341.206972	-2110.126727	438.738787	355.806672	-2087.363096	427.167803	275.259435	-2152.710814	516.401133	294.950325	-2162.289603	293.551993	284.935450	-2165.447716	298.579952	326.375845	-2203.722720	343.226786	370.655438	
